<?xml version="1.0" encoding="utf-8"?>
<!-- Generator: Adobe Illustrator 21.0.2, SVG Export Plug-In . SVG Version: 6.00 Build 0)  -->
<svg version="1.1" id="Layer_1" xmlns="http://www.w3.org/2000/svg" xmlns:xlink="http://www.w3.org/1999/xlink" x="0px" y="0px"
	 viewBox="0 0 100 100" style="enable-background:new 0 0 100 100;" xml:space="preserve">
<g>
	<path d="M47.5,58.2l-0.1-1.5c-0.3-3,0.7-6.4,3.5-9.8c2.5-3,4-5.2,4-7.7c0-2.9-1.8-4.8-5.4-4.9c-2,0-4.3,0.7-5.7,1.8l-1.4-3.6
		c1.9-1.4,5.1-2.3,8.1-2.3c6.5,0,9.4,4,9.4,8.3c0,3.8-2.1,6.6-4.9,9.8c-2.5,2.9-3.4,5.4-3.2,8.3l0.1,1.5H47.5z M46.2,66.1
		c0-2.1,1.4-3.6,3.4-3.6s3.3,1.5,3.3,3.6c0,2-1.3,3.5-3.4,3.5C47.6,69.6,46.2,68.1,46.2,66.1z"/>
</g>
</svg>
